<svg width="12.375" height="13.75" viewBox="0 0 12.375 13.75" xmlns="http://www.w3.org/2000/svg">
    <path d="M8.017 11.745c0 .237-.19.43-.422.43a.426.426 0 0 1-.422-.43V6.589c0-.238.189-.43.422-.43.233 0 .422.192.422.43v5.156zm-2.813 0c0 .237-.189.43-.422.43a.426.426 0 0 1-.421-.43V6.589c0-.238.189-.43.421-.43.233 0 .422.192.422.43v5.156zm5.175-7.448H1.995a.284.284 0 0 0-.281.312l.724 8.099c.053.59.539 1.042 1.12 1.042h5.258c.582 0 1.068-.452 1.12-1.042l.723-8.099a.288.288 0 0 0-.072-.219.277.277 0 0 0-.208-.093zM4.5 2.148v-.716c0-.158.126-.286.281-.286h2.813c.155 0 .281.128.281.286v.716c0 .08-.063.144-.14.144H4.64a.142.142 0 0 1-.141-.144m7.313.144H9.14A.142.142 0 0 1 9 2.148v-.716C9 .642 8.37 0 7.594 0H4.78c-.777 0-1.406.641-1.406 1.432v.716c0 .08-.063.144-.14.144H.562A.568.568 0 0 0 0 2.865c0 .316.252.572.563.572h11.25a.568.568 0 0 0 .562-.572.568.568 0 0 0-.563-.573" fill="#FC3E30" fill-rule="evenodd"/>
</svg>
